<svg width="22" height="20" viewBox="0 0 22 20" fill="none" xmlns="http://www.w3.org/2000/svg">
<path d="M8.23077 8.25C8.23077 8.32736 8.19835 8.40154 8.14065 8.45624C8.08295 8.51094 8.00468 8.54167 7.92308 8.54167C7.84147 8.54167 7.76321 8.51094 7.70551 8.45624C7.6478 8.40154 7.61538 8.32736 7.61538 8.25C7.61538 8.17265 7.6478 8.09846 7.70551 8.04376C7.76321 7.98906 7.84147 7.95833 7.92308 7.95833C8.00468 7.95833 8.08295 7.98906 8.14065 8.04376C8.19835 8.09846 8.23077 8.17265 8.23077 8.25ZM8.23077 8.25H7.92308M11.3077 8.25C11.3077 8.32736 11.2753 8.40154 11.2176 8.45624C11.1599 8.51094 11.0816 8.54167 11 8.54167C10.9184 8.54167 10.8401 8.51094 10.7824 8.45624C10.7247 8.40154 10.6923 8.32736 10.6923 8.25C10.6923 8.17265 10.7247 8.09846 10.7824 8.04376C10.8401 7.98906 10.9184 7.95833 11 7.95833C11.0816 7.95833 11.1599 7.98906 11.2176 8.04376C11.2753 8.09846 11.3077 8.17265 11.3077 8.25ZM11.3077 8.25H11M14.3846 8.25C14.3846 8.32736 14.3522 8.40154 14.2945 8.45624C14.2368 8.51094 14.1585 8.54167 14.0769 8.54167C13.9953 8.54167 13.9171 8.51094 13.8594 8.45624C13.8016 8.40154 13.7692 8.32736 13.7692 8.25C13.7692 8.17265 13.8016 8.09846 13.8594 8.04376C13.9171 7.98906 13.9953 7.95833 14.0769 7.95833C14.1585 7.95833 14.2368 7.98906 14.2945 8.04376C14.3522 8.09846 14.3846 8.17265 14.3846 8.25ZM14.3846 8.25H14.0769M3 10.5911C3 11.8356 3.92144 12.9198 5.22113 13.101C6.11303 13.2254 7.01395 13.3211 7.92308 13.388V17L11.3561 13.7466C11.5261 13.5861 11.7546 13.4936 11.9945 13.4883C13.5958 13.451 15.1932 13.3216 16.7781 13.101C18.0786 12.9198 19 11.8363 19 10.5903V5.90967C19 4.66367 18.0786 3.58022 16.7789 3.399C14.8654 3.13278 12.934 2.99942 11 3C9.03733 3 7.10749 3.13611 5.22113 3.399C3.92144 3.58022 3 4.66445 3 5.90967V10.5903V10.5911Z" stroke="#FEDA85" stroke-width="1.5" stroke-linecap="round" stroke-linejoin="round"/>
</svg>
