<svg width="20" height="19" viewBox="0 0 20 19" fill="none" xmlns="http://www.w3.org/2000/svg">
<g clip-path="url(#clip0_321_2)">
<path fill-rule="evenodd" clip-rule="evenodd" d="M2.75489 8.05856C3.09537 6.78669 3.76467 5.62688 4.69552 4.6957C5.62636 3.76452 6.78594 3.0948 8.05768 2.75386C9.32941 2.41292 10.6685 2.41277 11.9403 2.75344C13.2121 3.09411 14.3718 3.76358 15.3029 4.69456L17.2059 6.59756H14.0229C13.824 6.59756 13.6332 6.67657 13.4926 6.81723C13.3519 6.95788 13.2729 7.14864 13.2729 7.34756C13.2729 7.54647 13.3519 7.73723 13.4926 7.87789C13.6332 8.01854 13.824 8.09756 14.0229 8.09756H19.0149C19.2138 8.09756 19.4046 8.01854 19.5452 7.87789C19.6859 7.73723 19.7649 7.54647 19.7649 7.34756V2.35556C19.7649 2.15664 19.6859 1.96588 19.5452 1.82523C19.4046 1.68457 19.2138 1.60556 19.0149 1.60556C18.816 1.60556 18.6252 1.68457 18.4846 1.82523C18.3439 1.96588 18.2649 2.15664 18.2649 2.35556V5.53556L16.3649 3.63556C15.2479 2.51801 13.8563 1.71424 12.3301 1.30506C10.8039 0.895878 9.19692 0.895707 7.67065 1.30456C6.14438 1.71342 4.75265 2.51689 3.63538 3.6342C2.51811 4.75151 1.71469 6.14327 1.30589 7.66956C1.28041 7.76476 1.27394 7.86406 1.28683 7.96177C1.29973 8.05948 1.33175 8.15369 1.38106 8.23903C1.43036 8.32437 1.496 8.39916 1.57421 8.45913C1.65242 8.5191 1.74168 8.56308 1.83689 8.58856C1.9321 8.61403 2.03139 8.62051 2.1291 8.60761C2.22681 8.59471 2.32102 8.5627 2.40636 8.51339C2.4917 8.46408 2.56649 8.39845 2.62646 8.32023C2.68643 8.24202 2.73041 8.15276 2.75589 8.05756L2.75489 8.05856ZM18.1629 11.4106C18.0677 11.385 17.9685 11.3784 17.8708 11.3912C17.7731 11.404 17.6789 11.436 17.5936 11.4852C17.5082 11.5344 17.4334 11.5999 17.3734 11.6781C17.3134 11.7562 17.2694 11.8454 17.2439 11.9406C16.9034 13.2124 16.2341 14.3722 15.3033 15.3034C14.3724 16.2346 13.2128 16.9043 11.9411 17.2453C10.6694 17.5862 9.33028 17.5863 8.05846 17.2457C6.78665 16.905 5.62693 16.2355 4.69589 15.3046L2.79389 13.4016H5.97689C6.1758 13.4016 6.36656 13.3225 6.50722 13.1819C6.64787 13.0412 6.72689 12.8505 6.72689 12.6516C6.72689 12.4526 6.64787 12.2619 6.50722 12.1212C6.36656 11.9806 6.1758 11.9016 5.97689 11.9016H0.983887C0.784974 11.9016 0.594209 11.9806 0.453557 12.1212C0.312904 12.2619 0.233887 12.4526 0.233887 12.6516V17.6436C0.233887 17.8425 0.312904 18.0332 0.453557 18.1739C0.594209 18.3145 0.784974 18.3936 0.983887 18.3936C1.1828 18.3936 1.37356 18.3145 1.51422 18.1739C1.65487 18.0332 1.73389 17.8425 1.73389 17.6436V14.4636L3.63389 16.3636C4.75098 17.4811 6.14262 18.2848 7.66886 18.694C9.19511 19.1031 10.8022 19.1032 12.3285 18.6942C13.8547 18.2852 15.2465 17.4816 16.3637 16.3642C17.4809 15.2468 18.2842 13.8549 18.6929 12.3286C18.7442 12.1365 18.7172 11.932 18.6178 11.7599C18.5185 11.5878 18.3548 11.4621 18.1629 11.4106Z" fill="white"/>
</g>
<defs>
<clipPath id="clip0_321_2">
<rect width="20" height="19.0013" fill="white"/>
</clipPath>
</defs>
</svg>
