<svg width="22" height="20" viewBox="0 0 22 20" fill="none" xmlns="http://www.w3.org/2000/svg">
<path d="M8.23077 8.53846C8.23077 8.62007 8.19835 8.69833 8.14065 8.75604C8.08295 8.81374 8.00468 8.84616 7.92308 8.84616C7.84147 8.84616 7.76321 8.81374 7.70551 8.75604C7.6478 8.69833 7.61538 8.62007 7.61538 8.53846C7.61538 8.45686 7.6478 8.3786 7.70551 8.32089C7.76321 8.26319 7.84147 8.23077 7.92308 8.23077C8.00468 8.23077 8.08295 8.26319 8.14065 8.32089C8.19835 8.3786 8.23077 8.45686 8.23077 8.53846ZM8.23077 8.53846H7.92308M11.3077 8.53846C11.3077 8.62007 11.2753 8.69833 11.2176 8.75604C11.1599 8.81374 11.0816 8.84616 11 8.84616C10.9184 8.84616 10.8401 8.81374 10.7824 8.75604C10.7247 8.69833 10.6923 8.62007 10.6923 8.53846C10.6923 8.45686 10.7247 8.3786 10.7824 8.32089C10.8401 8.26319 10.9184 8.23077 11 8.23077C11.0816 8.23077 11.1599 8.26319 11.2176 8.32089C11.2753 8.3786 11.3077 8.45686 11.3077 8.53846ZM11.3077 8.53846H11M14.3846 8.53846C14.3846 8.62007 14.3522 8.69833 14.2945 8.75604C14.2368 8.81374 14.1585 8.84616 14.0769 8.84616C13.9953 8.84616 13.9171 8.81374 13.8594 8.75604C13.8016 8.69833 13.7692 8.62007 13.7692 8.53846C13.7692 8.45686 13.8016 8.3786 13.8594 8.32089C13.9171 8.26319 13.9953 8.23077 14.0769 8.23077C14.1585 8.23077 14.2368 8.26319 14.2945 8.32089C14.3522 8.3786 14.3846 8.45686 14.3846 8.53846ZM14.3846 8.53846H14.0769M3 11.0082C3 12.321 3.92144 13.4648 5.22113 13.656C6.11303 13.7873 7.01395 13.8882 7.92308 13.9588V17.7692L11.3561 14.337C11.5261 14.1677 11.7546 14.0702 11.9945 14.0646C13.5958 14.0252 15.1932 13.8888 16.7781 13.656C18.0786 13.4648 19 12.3218 19 11.0074V6.06954C19 4.75508 18.0786 3.6121 16.7789 3.42093C14.8654 3.14007 12.934 2.99939 11 3C9.03733 3 7.10749 3.14359 5.22113 3.42093C3.92144 3.6121 3 4.7559 3 6.06954V11.0074V11.0082Z" stroke="#FEDA85" stroke-width="1.5" stroke-linecap="round" stroke-linejoin="round"/>
<path d="M2 19L20 1M2 1L20 19" stroke="#FEDA85" stroke-width="1.5" stroke-linecap="round" stroke-linejoin="round"/>
</svg>
